<svg width="82" height="65" viewBox="0 0 82 65" fill="none" xmlns="http://www.w3.org/2000/svg">
<path d="M55 3H3V45.2537H55V3Z" stroke="#787878" stroke-width="6" stroke-linecap="round" stroke-linejoin="round"/>
<path d="M55 18.9624H68.7143L79 28.8216V45.2536H55V18.9624Z" stroke="#787878" stroke-width="6" stroke-linecap="round" stroke-linejoin="round"/>
<path d="M18.5 61.2162C23.1944 61.2162 27 57.6429 27 53.235C27 48.827 23.1944 45.2537 18.5 45.2537C13.8056 45.2537 10 48.827 10 53.235C10 57.6429 13.8056 61.2162 18.5 61.2162Z" stroke="#787878" stroke-width="6" stroke-linecap="round" stroke-linejoin="round"/>
<path d="M63.5 61.2162C68.1944 61.2162 72 57.6429 72 53.235C72 48.827 68.1944 45.2537 63.5 45.2537C58.8056 45.2537 55 48.827 55 53.235C55 57.6429 58.8056 61.2162 63.5 61.2162Z" stroke="#787878" stroke-width="6" stroke-linecap="round" stroke-linejoin="round"/>
</svg>
