<svg width="84" height="80" viewBox="0 0 84 80" fill="none" xmlns="http://www.w3.org/2000/svg">
<g clip-path="url(#clip0_28_155)">
<path d="M42 49.5707C47.5228 49.5707 52 45.3668 52 40.181C52 34.9952 47.5228 30.7913 42 30.7913C36.4772 30.7913 32 34.9952 32 40.181C32 45.3668 36.4772 49.5707 42 49.5707Z" stroke="#787878" stroke-width="7" stroke-linecap="round" stroke-linejoin="round"/>
<path d="M67.5636 49.9121C67.1038 50.8905 66.9666 51.9757 67.1698 53.028C67.373 54.0802 67.9072 55.0512 68.7036 55.8157L68.9109 56.0103C69.5533 56.6128 70.0629 57.3283 70.4106 58.1159C70.7583 58.9034 70.9373 59.7476 70.9373 60.6002C70.9373 61.4527 70.7583 62.2969 70.4106 63.0845C70.0629 63.872 69.5533 64.5875 68.9109 65.19C68.2692 65.7932 67.5072 66.2717 66.6685 66.5982C65.8297 66.9247 64.9307 67.0927 64.0227 67.0927C63.1148 67.0927 62.2157 66.9247 61.377 66.5982C60.5382 66.2717 59.7762 65.7932 59.1345 65.19L58.9273 64.9954C58.1131 64.2476 57.079 63.746 55.9584 63.5552C54.8378 63.3644 53.6819 63.4932 52.64 63.925C51.6183 64.3362 50.7469 65.0189 50.1331 65.8892C49.5193 66.7594 49.1899 67.7792 49.1855 68.823V69.3744C49.1855 71.095 48.4575 72.7451 47.1618 73.9618C45.8661 75.1784 44.1088 75.8619 42.2764 75.8619C40.444 75.8619 38.6866 75.1784 37.3909 73.9618C36.0952 72.7451 35.3673 71.095 35.3673 69.3744V69.0825C35.3405 68.0088 34.9704 66.9676 34.305 66.0941C33.6397 65.2205 32.7098 64.5552 31.6364 64.1845C30.5944 63.7527 29.4386 63.6239 28.318 63.8147C27.1973 64.0055 26.1633 64.5071 25.3491 65.2549L25.1418 65.4495C24.5001 66.0527 23.7382 66.5312 22.8994 66.8577C22.0607 67.1842 21.1616 67.3522 20.2536 67.3522C19.3457 67.3522 18.4466 67.1842 17.6079 66.8577C16.7691 66.5312 16.0071 66.0527 15.3655 65.4495C14.7231 64.847 14.2135 64.1315 13.8658 63.344C13.5181 62.5564 13.3391 61.7122 13.3391 60.8597C13.3391 60.0071 13.5181 59.1629 13.8658 58.3754C14.2135 57.5878 14.7231 56.8723 15.3655 56.2698L15.5727 56.0752C16.3691 55.3107 16.9034 54.3397 17.1066 53.2875C17.3098 52.2352 17.1726 51.15 16.7127 50.1716C16.2748 49.2122 15.5477 48.394 14.6209 47.8177C13.6941 47.2413 12.608 46.932 11.4964 46.9279H10.9091C9.07669 46.9279 7.31933 46.2444 6.02363 45.0278C4.72792 43.8111 4 42.161 4 40.4404C4 38.7199 4.72792 37.0698 6.02363 35.8531C7.31933 34.6365 9.07669 33.953 10.9091 33.953H11.22C12.3634 33.9279 13.4724 33.5804 14.4027 32.9556C15.333 32.3308 16.0416 31.4577 16.4364 30.4498C16.8962 29.4714 17.0334 28.3861 16.8302 27.3339C16.627 26.2816 16.0928 25.3107 15.2964 24.5462L15.0891 24.3516C14.4467 23.7491 13.9371 23.0336 13.5894 22.246C13.2417 21.4585 13.0627 20.6143 13.0627 19.7617C13.0627 18.9092 13.2417 18.065 13.5894 17.2774C13.9371 16.4898 14.4467 15.7744 15.0891 15.1718C15.7308 14.5687 16.4928 14.0902 17.3315 13.7637C18.1703 13.4372 19.0693 13.2692 19.9773 13.2692C20.8852 13.2692 21.7843 13.4372 22.623 13.7637C23.4618 14.0902 24.2238 14.5687 24.8655 15.1718L25.0727 15.3665C25.8869 16.1143 26.921 16.6159 28.0416 16.8067C29.1622 16.9975 30.3181 16.8687 31.36 16.4369H31.6364C32.6581 16.0257 33.5295 15.343 34.1433 14.4727C34.7571 13.6025 35.0865 12.5827 35.0909 11.5389V10.9874C35.0909 9.26687 35.8188 7.61676 37.1145 6.40013C38.4102 5.1835 40.1676 4.5 42 4.5C43.8324 4.5 45.5898 5.1835 46.8855 6.40013C48.1812 7.61676 48.9091 9.26687 48.9091 10.9874V11.2794C48.9135 12.3232 49.2429 13.343 49.8567 14.2132C50.4705 15.0835 51.3419 15.7662 52.3636 16.1774C53.4056 16.6092 54.5614 16.738 55.682 16.5472C56.8027 16.3564 57.8367 15.8548 58.6509 15.107L58.8582 14.9123C59.4998 14.3092 60.2618 13.8307 61.1006 13.5042C61.9393 13.1777 62.8384 13.0097 63.7464 13.0097C64.6543 13.0097 65.5534 13.1777 66.3921 13.5042C67.2309 13.8307 67.9929 14.3092 68.6345 14.9123C69.2769 15.5149 69.7865 16.2303 70.1342 17.0179C70.4819 17.8055 70.6609 18.6497 70.6609 19.5022C70.6609 20.3548 70.4819 21.199 70.1342 21.9865C69.7865 22.7741 69.2769 23.4896 68.6345 24.0921L68.4273 24.2867C67.6309 25.0512 67.0966 26.0221 66.8934 27.0744C66.6902 28.1266 66.8274 29.2119 67.2873 30.1903V30.4498C67.7252 31.4092 68.4523 32.2274 69.3791 32.8037C70.3059 33.3801 71.392 33.6893 72.5036 33.6935H73.0909C74.9233 33.6935 76.6807 34.377 77.9764 35.5936C79.2721 36.8103 80 38.4604 80 40.1809C80 41.9015 79.2721 43.5516 77.9764 44.7683C76.6807 45.9849 74.9233 46.6684 73.0909 46.6684H72.78C71.6684 46.6725 70.5823 46.9818 69.6555 47.5582C68.7287 48.1345 68.0015 48.9527 67.5636 49.9121Z" stroke="#787878" stroke-width="7" stroke-linecap="round" stroke-linejoin="round"/>
</g>
<defs>
<clipPath id="clip0_28_155">
<rect width="84" height="79" fill="white" transform="translate(0 0.5)"/>
</clipPath>
</defs>
</svg>
