<svg width="78" height="71" viewBox="0 0 78 71" fill="none" xmlns="http://www.w3.org/2000/svg">
<path d="M74.4978 51.665V61.4501C74.5018 62.3585 74.2982 63.2576 73.8999 64.09C73.5016 64.9223 72.9174 65.6694 72.1848 66.2835C71.4522 66.8976 70.5873 67.3652 69.6455 67.6562C68.7036 67.9472 67.7057 68.0553 66.7155 67.9735C55.7305 66.8829 45.1785 63.4533 35.9076 57.9601C27.2822 52.9523 19.9694 46.2707 14.4884 38.3898C8.45531 29.8807 4.70076 20.1928 3.52898 10.1108C3.43977 9.20887 3.55709 8.29981 3.87347 7.44154C4.18985 6.58326 4.69836 5.79459 5.36662 5.12571C6.03488 4.45684 6.84825 3.92243 7.75494 3.55651C8.66164 3.19059 9.64179 3.00117 10.633 3.00032H21.3426C23.0751 2.98474 24.7546 3.54528 26.0682 4.57746C27.3818 5.60964 28.2398 7.04303 28.4823 8.61045C28.9343 11.7419 29.7726 14.8166 30.9812 17.7758C31.4615 18.9433 31.5655 20.2121 31.2807 21.4318C30.996 22.6516 30.3346 23.7712 29.3748 24.6581L24.841 28.8004C29.9229 36.9663 37.3229 43.7274 46.2602 48.3707L50.7939 44.2283C51.7645 43.3513 52.9899 42.747 54.3249 42.4868C55.66 42.2267 57.0486 42.3217 58.3263 42.7605C61.5652 43.8648 64.9303 44.6307 68.3576 45.0437C70.0918 45.2672 71.6755 46.0653 72.8076 47.2861C73.9397 48.5069 74.5412 50.0654 74.4978 51.665Z" stroke="#787878" stroke-width="6" stroke-linecap="round" stroke-linejoin="round"/>
</svg>
